<svg width="16" height="15" viewBox="0 0 16 15" fill="none" xmlns="http://www.w3.org/2000/svg">
<path d="M15.3 5.28699L11.8 5.48699L8.6 0.586987C8.5 0.386987 8.2 0.286987 8 0.286987C7.8 0.286987 7.5 0.386987 7.4 0.586987L4.2 5.48699H0.7C0.3 5.48699 0 5.78699 0 6.18699C0 6.28699 0 6.28699 0 6.38699L1.9 13.187C2.1 13.887 2.6 14.287 3.3 14.287H12.7C13.4 14.287 13.9 13.887 14.1 13.187L16 6.28699C16 6.18699 16 6.18699 16 6.08699C16 5.68699 15.7 5.28699 15.3 5.28699ZM8 2.18699L10.2 5.38699H5.9L8 2.18699Z" fill="black"/>
</svg>
